%TF.GenerationSoftware,KiCad,Pcbnew,9.0.6*%
%TF.CreationDate,2026-01-05T22:13:59+01:00*%
%TF.ProjectId,Robofetz Mainboard,526f626f-6665-4747-9a20-4d61696e626f,rev?*%
%TF.SameCoordinates,Original*%
%TF.FileFunction,Copper,L2,Bot*%
%TF.FilePolarity,Positive*%
%FSLAX46Y46*%
G04 Gerber Fmt 4.6, Leading zero omitted, Abs format (unit mm)*
G04 Created by KiCad (PCBNEW 9.0.6) date 2026-01-05 22:13:59*
%MOMM*%
%LPD*%
G01*
G04 APERTURE LIST*
G04 Aperture macros list*
%AMRoundRect*
0 Rectangle with rounded corners*
0 $1 Rounding radius*
0 $2 $3 $4 $5 $6 $7 $8 $9 X,Y pos of 4 corners*
0 Add a 4 corners polygon primitive as box body*
4,1,4,$2,$3,$4,$5,$6,$7,$8,$9,$2,$3,0*
0 Add four circle primitives for the rounded corners*
1,1,$1+$1,$2,$3*
1,1,$1+$1,$4,$5*
1,1,$1+$1,$6,$7*
1,1,$1+$1,$8,$9*
0 Add four rect primitives between the rounded corners*
20,1,$1+$1,$2,$3,$4,$5,0*
20,1,$1+$1,$4,$5,$6,$7,0*
20,1,$1+$1,$6,$7,$8,$9,0*
20,1,$1+$1,$8,$9,$2,$3,0*%
G04 Aperture macros list end*
%TA.AperFunction,ComponentPad*%
%ADD10R,2.000000X1.200000*%
%TD*%
%TA.AperFunction,ComponentPad*%
%ADD11O,2.000000X1.200000*%
%TD*%
%TA.AperFunction,ComponentPad*%
%ADD12RoundRect,0.250000X0.725000X-0.600000X0.725000X0.600000X-0.725000X0.600000X-0.725000X-0.600000X0*%
%TD*%
%TA.AperFunction,ComponentPad*%
%ADD13O,1.950000X1.700000*%
%TD*%
%TA.AperFunction,ComponentPad*%
%ADD14RoundRect,0.250000X-0.725000X0.600000X-0.725000X-0.600000X0.725000X-0.600000X0.725000X0.600000X0*%
%TD*%
%TA.AperFunction,ComponentPad*%
%ADD15C,2.250000*%
%TD*%
%TA.AperFunction,ComponentPad*%
%ADD16RoundRect,0.250000X0.550000X-0.550000X0.550000X0.550000X-0.550000X0.550000X-0.550000X-0.550000X0*%
%TD*%
%TA.AperFunction,ComponentPad*%
%ADD17C,1.600000*%
%TD*%
%TA.AperFunction,ComponentPad*%
%ADD18C,1.400000*%
%TD*%
%TA.AperFunction,ComponentPad*%
%ADD19C,1.500000*%
%TD*%
%TA.AperFunction,ComponentPad*%
%ADD20RoundRect,0.250000X-0.750000X0.600000X-0.750000X-0.600000X0.750000X-0.600000X0.750000X0.600000X0*%
%TD*%
%TA.AperFunction,ComponentPad*%
%ADD21O,2.000000X1.700000*%
%TD*%
%TA.AperFunction,ComponentPad*%
%ADD22C,1.905000*%
%TD*%
%TA.AperFunction,ViaPad*%
%ADD23C,0.850000*%
%TD*%
%TA.AperFunction,ViaPad*%
%ADD24C,0.600000*%
%TD*%
%TA.AperFunction,Conductor*%
%ADD25C,0.300000*%
%TD*%
%TA.AperFunction,Conductor*%
%ADD26C,0.500000*%
%TD*%
%TA.AperFunction,Conductor*%
%ADD27C,0.200000*%
%TD*%
G04 APERTURE END LIST*
D10*
%TO.P,U5,1,3V3*%
%TO.N,Supply 3.3V*%
X110103680Y-83282720D03*
D11*
%TO.P,U5,2,CHIP_PU*%
%TO.N,unconnected-(U5-CHIP_PU-Pad2)*%
X110103680Y-85822720D03*
%TO.P,U5,3,SENSOR_VP/GPIO36/ADC1_CH0*%
%TO.N,unconnected-(U5-SENSOR_VP{slash}GPIO36{slash}ADC1_CH0-Pad3)*%
X110103680Y-88362720D03*
%TO.P,U5,4,SENSOR_VN/GPIO39/ADC1_CH3*%
%TO.N,unconnected-(U5-SENSOR_VN{slash}GPIO39{slash}ADC1_CH3-Pad4)*%
X110103680Y-90902720D03*
%TO.P,U5,5,VDET_1/GPIO34/ADC1_CH6*%
%TO.N,unconnected-(U5-VDET_1{slash}GPIO34{slash}ADC1_CH6-Pad5)*%
X110103680Y-93442720D03*
%TO.P,U5,6,VDET_2/GPIO35/ADC1_CH7*%
%TO.N,unconnected-(U5-VDET_2{slash}GPIO35{slash}ADC1_CH7-Pad6)*%
X110103680Y-95982720D03*
%TO.P,U5,7,32K_XP/GPIO32/ADC1_CH4*%
%TO.N,Motor1 CW*%
X110103680Y-98522720D03*
%TO.P,U5,8,32K_XN/GPIO33/ADC1_CH5*%
%TO.N,STBY*%
X110103680Y-101062720D03*
%TO.P,U5,9,DAC_1/ADC2_CH8/GPIO25*%
%TO.N,Motor2 CW*%
X110103680Y-103602720D03*
%TO.P,U5,10,DAC_2/ADC2_CH9/GPIO26*%
%TO.N,Motor2 CCW*%
X110103680Y-106142720D03*
%TO.P,U5,11,ADC2_CH7/GPIO27*%
%TO.N,Motor 2 PWM*%
X110103680Y-108682720D03*
%TO.P,U5,12,MTMS/GPIO14/ADC2_CH6*%
%TO.N,unconnected-(U5-MTMS{slash}GPIO14{slash}ADC2_CH6-Pad12)*%
X110103680Y-111222720D03*
%TO.P,U5,13,MTDI/GPIO12/ADC2_CH5*%
%TO.N,unconnected-(U5-MTDI{slash}GPIO12{slash}ADC2_CH5-Pad13)*%
X110103680Y-113762720D03*
%TO.P,U5,14,GND*%
%TO.N,GND*%
X110103680Y-116302720D03*
%TO.P,U5,15,MTCK/GPIO13/ADC2_CH4*%
%TO.N,unconnected-(U5-MTCK{slash}GPIO13{slash}ADC2_CH4-Pad15)*%
X110103680Y-118842720D03*
%TO.P,U5,16,SD_DATA2/GPIO9*%
%TO.N,unconnected-(U5-SD_DATA2{slash}GPIO9-Pad16)*%
X110103680Y-121382720D03*
%TO.P,U5,17,SD_DATA3/GPIO10*%
%TO.N,unconnected-(U5-SD_DATA3{slash}GPIO10-Pad17)*%
X110103680Y-123922720D03*
%TO.P,U5,18,CMD*%
%TO.N,unconnected-(U5-CMD-Pad18)*%
X110103680Y-126462720D03*
%TO.P,U5,19,5V*%
%TO.N,Supply 5V ESP*%
X110103680Y-129002720D03*
%TO.P,U5,20,SD_CLK/GPIO6*%
%TO.N,unconnected-(U5-SD_CLK{slash}GPIO6-Pad20)*%
X135500000Y-129000000D03*
%TO.P,U5,21,SD_DATA0/GPIO7*%
%TO.N,unconnected-(U5-SD_DATA0{slash}GPIO7-Pad21)*%
X135500000Y-126460000D03*
%TO.P,U5,22,SD_DATA1/GPIO8*%
%TO.N,unconnected-(U5-SD_DATA1{slash}GPIO8-Pad22)*%
X135503680Y-123922720D03*
%TO.P,U5,23,MTDO/GPIO15/ADC2_CH3*%
%TO.N,unconnected-(U5-MTDO{slash}GPIO15{slash}ADC2_CH3-Pad23)*%
X135503680Y-121382720D03*
%TO.P,U5,24,ADC2_CH2/GPIO2*%
%TO.N,unconnected-(U5-ADC2_CH2{slash}GPIO2-Pad24)*%
X135503680Y-118842720D03*
%TO.P,U5,25,GPIO0/BOOT/ADC2_CH1*%
%TO.N,unconnected-(U5-GPIO0{slash}BOOT{slash}ADC2_CH1-Pad25)*%
X135503680Y-116302720D03*
%TO.P,U5,26,ADC2_CH0/GPIO4*%
%TO.N,Encoder R1*%
X135503680Y-113762720D03*
%TO.P,U5,27,GPIO16*%
%TO.N,Motor1 CCW*%
X135503680Y-111222720D03*
%TO.P,U5,28,GPIO17*%
%TO.N,Motor 1 PWM*%
X135503680Y-108682720D03*
%TO.P,U5,29,GPIO5*%
%TO.N,Encoder R2*%
X135503680Y-106142720D03*
%TO.P,U5,30,GPIO18*%
%TO.N,Encoder L1*%
X135503680Y-103602720D03*
%TO.P,U5,31,GPIO19*%
%TO.N,Encoder L2*%
X135503680Y-101062720D03*
%TO.P,U5,32,GND*%
%TO.N,GND*%
X135503680Y-98522720D03*
%TO.P,U5,33,GPIO21*%
%TO.N,unconnected-(U5-GPIO21-Pad33)*%
X135503680Y-95982720D03*
%TO.P,U5,34,U0RXD/GPIO3*%
%TO.N,unconnected-(U5-U0RXD{slash}GPIO3-Pad34)*%
X135503680Y-93442720D03*
%TO.P,U5,35,U0TXD/GPIO1*%
%TO.N,unconnected-(U5-U0TXD{slash}GPIO1-Pad35)*%
X135503680Y-90902720D03*
%TO.P,U5,36,GPIO22*%
%TO.N,unconnected-(U5-GPIO22-Pad36)*%
X135503680Y-88362720D03*
%TO.P,U5,37,GPIO23*%
%TO.N,WPN Control*%
X135503680Y-85822720D03*
%TO.P,U5,38,GND*%
%TO.N,GND*%
X135503680Y-83282720D03*
%TD*%
D12*
%TO.P,J7,1,Pin_1*%
%TO.N,Net-(D1-A)*%
X92000000Y-111500000D03*
D13*
%TO.P,J7,2,Pin_2*%
%TO.N,Supply 5V*%
X92000000Y-109000000D03*
%TO.P,J7,3,Pin_3*%
X92000000Y-106500000D03*
%TO.P,J7,4,Pin_4*%
%TO.N,GND*%
X92000000Y-104000000D03*
%TD*%
D14*
%TO.P,J5,1,Pin_1*%
%TO.N,Motor 2 - 2*%
X155500000Y-109500000D03*
D13*
%TO.P,J5,2,Pin_2*%
%TO.N,Supply 3.3V*%
X155500000Y-112000000D03*
%TO.P,J5,3,Pin_3*%
%TO.N,Encoder L2*%
X155500000Y-114500000D03*
%TO.P,J5,4,Pin_4*%
%TO.N,Encoder L1*%
X155500000Y-117000000D03*
%TO.P,J5,5,Pin_5*%
%TO.N,GND*%
X155500000Y-119500000D03*
%TO.P,J5,6,Pin_6*%
%TO.N,Motor 2 - 1*%
X155500000Y-122000000D03*
%TD*%
D15*
%TO.P,U2,1,IN+*%
%TO.N,Supply 16V*%
X98800000Y-123390000D03*
%TO.P,U2,2,IN-*%
%TO.N,GND*%
X98800000Y-132390000D03*
%TO.P,U2,3,OUT+*%
%TO.N,Supply 5V*%
X114300000Y-123390000D03*
%TO.P,U2,4,OUT-*%
%TO.N,GND*%
X114300000Y-132390000D03*
%TD*%
D16*
%TO.P,D1,1,K*%
%TO.N,Supply 5V ESP*%
X98000000Y-116620000D03*
D17*
%TO.P,D1,2,A*%
%TO.N,Net-(D1-A)*%
X98000000Y-109000000D03*
%TD*%
D18*
%TO.P,R1,1*%
%TO.N,WPN Control*%
X100400000Y-88000000D03*
%TO.P,R1,2*%
%TO.N,Net-(J6-Pin_2)*%
X98500000Y-88000000D03*
%TD*%
D12*
%TO.P,J6,1,Pin_1*%
%TO.N,GND*%
X98500000Y-103500000D03*
D13*
%TO.P,J6,2,Pin_2*%
%TO.N,Net-(J6-Pin_2)*%
X98500000Y-101000000D03*
%TO.P,J6,3,Pin_3*%
%TO.N,Supply 3.3V*%
X98500000Y-98500000D03*
%TD*%
D19*
%TO.P,U4,0,VIN*%
%TO.N,Supply 5V ESP*%
X104353680Y-123752720D03*
%TO.P,U4,1,GND*%
%TO.N,GND*%
X104353680Y-121212720D03*
%TO.P,U4,2,3.3V*%
%TO.N,Supply 3.3V*%
X129603680Y-123752720D03*
%TO.P,U4,3,GND*%
%TO.N,GND*%
X129619614Y-121192322D03*
%TO.P,U4,4,EN*%
%TO.N,unconnected-(U4-EN-Pad4)*%
X104353680Y-88192720D03*
%TO.P,U4,5,GPIO36*%
%TO.N,unconnected-(U4-GPIO36-Pad5)*%
X104353680Y-90732720D03*
%TO.P,U4,8,GPIO39*%
%TO.N,unconnected-(U4-GPIO39-Pad8)*%
X104353680Y-93272720D03*
%TO.P,U4,10,GPIO34*%
%TO.N,unconnected-(U4-GPIO34-Pad10)*%
X104353680Y-95812720D03*
%TO.P,U4,11,GPIO35*%
%TO.N,unconnected-(U4-GPIO35-Pad11)*%
X104353680Y-98352720D03*
%TO.P,U4,12,GPIO32*%
%TO.N,Motor1 CW*%
X104353680Y-100892720D03*
%TO.P,U4,13,GPIO33*%
%TO.N,STBY*%
X104353680Y-103432720D03*
%TO.P,U4,14,GPIO25*%
%TO.N,Motor2 CW*%
X104353680Y-105972720D03*
%TO.P,U4,15,GPIO26*%
%TO.N,Motor2 CCW*%
X104353680Y-108512720D03*
%TO.P,U4,16,GPIO27*%
%TO.N,Motor 2 PWM*%
X104353680Y-111052720D03*
%TO.P,U4,17,GPIO14*%
%TO.N,unconnected-(U4-GPIO14-Pad17)*%
X104353680Y-113592720D03*
%TO.P,U4,18,GPIO12*%
%TO.N,unconnected-(U4-GPIO12-Pad18)*%
X104353680Y-116132720D03*
%TO.P,U4,20,GPIO13*%
%TO.N,unconnected-(U4-GPIO13-Pad20)*%
X104353680Y-118672720D03*
%TO.P,U4,21,GPIO15*%
%TO.N,unconnected-(U4-GPIO15-Pad21)*%
X129619614Y-118652322D03*
%TO.P,U4,22,GPIO2*%
%TO.N,unconnected-(U4-GPIO2-Pad22)*%
X129619614Y-116112322D03*
%TO.P,U4,24,GPIO4*%
%TO.N,Encoder R1*%
X129619614Y-113572322D03*
%TO.P,U4,25,GPIO16*%
%TO.N,Motor1 CCW*%
X129619614Y-111032322D03*
%TO.P,U4,27,GPIO17*%
%TO.N,Motor 1 PWM*%
X129619614Y-108492322D03*
%TO.P,U4,34,GPIO5*%
%TO.N,Encoder R2*%
X129619614Y-105952322D03*
%TO.P,U4,35,GPIO18*%
%TO.N,Encoder L1*%
X129619614Y-103412322D03*
%TO.P,U4,36,GPIO23*%
%TO.N,WPN Control*%
X129619614Y-88172322D03*
%TO.P,U4,38,GPIO19*%
%TO.N,Encoder L2*%
X129619614Y-100872322D03*
%TO.P,U4,39,GPIO22*%
%TO.N,unconnected-(U4-GPIO22-Pad39)*%
X129619614Y-90712322D03*
%TO.P,U4,40,GPIO3*%
%TO.N,unconnected-(U4-GPIO3-Pad40)*%
X129619614Y-95792322D03*
%TO.P,U4,41,GPIO1*%
%TO.N,unconnected-(U4-GPIO1-Pad41)*%
X129619614Y-93252322D03*
%TO.P,U4,42,GPIO21*%
%TO.N,unconnected-(U4-GPIO21-Pad42)*%
X129619614Y-98332322D03*
%TD*%
D18*
%TO.P,R2,1*%
%TO.N,Supply 3.3V*%
X100405000Y-84000000D03*
%TO.P,R2,2*%
%TO.N,Net-(J6-Pin_2)*%
X98505000Y-84000000D03*
%TD*%
D20*
%TO.P,J2,1,Pin_1*%
%TO.N,Supply 16V*%
X93000000Y-84500000D03*
D21*
%TO.P,J2,2,Pin_2*%
%TO.N,GND*%
X93000000Y-87000000D03*
%TD*%
D14*
%TO.P,J4,1,Pin_1*%
%TO.N,Motor 1 - 1*%
X145000000Y-109500000D03*
D13*
%TO.P,J4,2,Pin_2*%
%TO.N,Supply 3.3V*%
X145000000Y-112000000D03*
%TO.P,J4,3,Pin_3*%
%TO.N,Encoder R2*%
X145000000Y-114500000D03*
%TO.P,J4,4,Pin_4*%
%TO.N,Encoder R1*%
X145000000Y-117000000D03*
%TO.P,J4,5,Pin_5*%
%TO.N,GND*%
X145000000Y-119500000D03*
%TO.P,J4,6,Pin_6*%
%TO.N,Motor 1 - 2*%
X145000000Y-122000000D03*
%TD*%
D22*
%TO.P,U3,1,VM*%
%TO.N,Supply 16V*%
X160000000Y-85500000D03*
%TO.P,U3,2,VCC*%
%TO.N,Supply 3.3V*%
X160000000Y-88000000D03*
%TO.P,U3,3,GND*%
%TO.N,GND*%
X160000000Y-90500000D03*
%TO.P,U3,4,A01*%
%TO.N,Motor 1 - 1*%
X160000000Y-93000000D03*
%TO.P,U3,5,A02*%
%TO.N,Motor 1 - 2*%
X160000000Y-95500000D03*
%TO.P,U3,6,B02*%
%TO.N,Motor 2 - 2*%
X160000000Y-98000000D03*
%TO.P,U3,7,B01*%
%TO.N,Motor 2 - 1*%
X160000000Y-100500000D03*
%TO.P,U3,8,GND*%
%TO.N,GND*%
X160000000Y-103000000D03*
%TO.P,U3,9,GND*%
X144000000Y-103000000D03*
%TO.P,U3,10,PWMB*%
%TO.N,Motor 2 PWM*%
X144000000Y-100500000D03*
%TO.P,U3,11,BI2*%
%TO.N,Motor2 CCW*%
X144000000Y-98000000D03*
%TO.P,U3,12,BI1*%
%TO.N,Motor2 CW*%
X144000000Y-95500000D03*
%TO.P,U3,13,STBY*%
%TO.N,STBY*%
X144000000Y-93000000D03*
%TO.P,U3,14,AI1*%
%TO.N,Motor1 CCW*%
X144000000Y-90500000D03*
%TO.P,U3,15,AI2*%
%TO.N,Motor1 CW*%
X144000000Y-88000000D03*
%TO.P,U3,16,PWMA*%
%TO.N,Motor 1 PWM*%
X144000000Y-85500000D03*
%TD*%
D23*
%TO.N,GND*%
X149000000Y-103000000D03*
D24*
%TO.N,Motor 2 PWM*%
X124018678Y-109981322D03*
X131000000Y-110000000D03*
%TO.N,Encoder L2*%
X151500000Y-130500000D03*
X151500000Y-127500000D03*
%TO.N,WPN Control*%
X101000000Y-93500000D03*
X102500000Y-96000000D03*
%TO.N,Motor 1 PWM*%
X138400000Y-104500000D03*
%TO.N,Motor1 CCW*%
X139558820Y-104208280D03*
%TD*%
D25*
%TO.N,GND*%
X149000000Y-103000000D02*
X160000000Y-103000000D01*
X147500000Y-122000000D02*
X147500000Y-127500000D01*
X145000000Y-119500000D02*
X147500000Y-122000000D01*
X147500000Y-127500000D02*
X155500000Y-119500000D01*
X147500000Y-132000000D02*
X147500000Y-127500000D01*
X146000000Y-133201000D02*
X146299000Y-133201000D01*
X146000000Y-133201000D02*
X120201000Y-133201000D01*
X146299000Y-133201000D02*
X147500000Y-132000000D01*
D26*
%TO.N,Supply 3.3V*%
X139000000Y-112000000D02*
X138875000Y-111875000D01*
X145000000Y-112000000D02*
X139000000Y-112000000D01*
X152500000Y-98250000D02*
X138875000Y-111875000D01*
X145000000Y-112000000D02*
X155500000Y-112000000D01*
D27*
%TO.N,Encoder L2*%
X151500000Y-127500000D02*
X151500000Y-130500000D01*
D25*
%TO.N,GND*%
X139522720Y-98522720D02*
X135503680Y-98522720D01*
X144000000Y-103000000D02*
X139522720Y-98522720D01*
D27*
%TO.N,Motor2 CCW*%
X136200000Y-80000000D02*
X136000000Y-80200000D01*
X143500000Y-80000000D02*
X136200000Y-80000000D01*
X146053500Y-82553500D02*
X143500000Y-80000000D01*
X106600000Y-102639040D02*
X110103680Y-106142720D01*
X146053500Y-95946500D02*
X146053500Y-82553500D01*
X136000000Y-80200000D02*
X109000000Y-80200000D01*
X109000000Y-80200000D02*
X106600000Y-82600000D01*
X106600000Y-82600000D02*
X106600000Y-102639040D01*
X144000000Y-98000000D02*
X146053500Y-95946500D01*
%TO.N,Motor2 CW*%
X107200000Y-100299040D02*
X110103680Y-103202720D01*
X107200000Y-82600000D02*
X107200000Y-100299040D01*
X108800000Y-81000000D02*
X107200000Y-82600000D01*
X143934314Y-81000000D02*
X108800000Y-81000000D01*
X145653500Y-82719186D02*
X143934314Y-81000000D01*
X144000000Y-95500000D02*
X145653500Y-93846500D01*
%TO.N,STBY*%
X107800000Y-98759040D02*
X110103680Y-101062720D01*
X143600000Y-81600000D02*
X109000000Y-81600000D01*
X145253500Y-83253500D02*
X143600000Y-81600000D01*
X145253500Y-91746500D02*
X145253500Y-83253500D01*
X109000000Y-81600000D02*
X107800000Y-82800000D01*
X144000000Y-93000000D02*
X145253500Y-91746500D01*
%TO.N,Motor2 CW*%
X145653500Y-93846500D02*
X145653500Y-82719186D01*
%TO.N,STBY*%
X107800000Y-82800000D02*
X107800000Y-98759040D01*
%TO.N,Motor2 CW*%
X110103680Y-103202720D02*
X110103680Y-103602720D01*
D26*
%TO.N,Supply 3.3V*%
X129603680Y-126603680D02*
X129603680Y-123752720D01*
X135600000Y-132600000D02*
X129603680Y-126603680D01*
X138600000Y-112150000D02*
X138600000Y-129600000D01*
X152500000Y-92500000D02*
X152500000Y-98250000D01*
X138600000Y-129600000D02*
X135600000Y-132600000D01*
X157000000Y-88000000D02*
X152500000Y-92500000D01*
X160000000Y-88000000D02*
X157000000Y-88000000D01*
X138875000Y-111875000D02*
X138600000Y-112150000D01*
%TO.N,Supply 16V*%
X150900000Y-76400000D02*
X160000000Y-85500000D01*
X98800000Y-76400000D02*
X150900000Y-76400000D01*
X93000000Y-82200000D02*
X98800000Y-76400000D01*
X93000000Y-84500000D02*
X93000000Y-82200000D01*
%TO.N,Net-(D1-A)*%
X95500000Y-111500000D02*
X98000000Y-109000000D01*
X92000000Y-111500000D02*
X95500000Y-111500000D01*
%TO.N,Supply 5V ESP*%
X109603680Y-129002720D02*
X110103680Y-129002720D01*
%TO.N,Supply 16V*%
X98800000Y-123390000D02*
X89800000Y-114390000D01*
X89800000Y-85200000D02*
X90500000Y-84500000D01*
X89800000Y-114390000D02*
X89800000Y-85200000D01*
X90500000Y-84500000D02*
X93000000Y-84500000D01*
%TO.N,Supply 3.3V*%
X110103680Y-83282720D02*
X121400000Y-94579040D01*
X121400000Y-115549040D02*
X129603680Y-123752720D01*
X121400000Y-94579040D02*
X121400000Y-115549040D01*
D25*
%TO.N,GND*%
X119400000Y-132400000D02*
X119400000Y-125599040D01*
X146399000Y-133201000D02*
X146000000Y-133201000D01*
X98800000Y-126766400D02*
X98800000Y-132390000D01*
X98500000Y-103500000D02*
X100601960Y-105601960D01*
X109263680Y-116302720D02*
X110103680Y-116302720D01*
X119400000Y-125599040D02*
X110103680Y-116302720D01*
X132000000Y-102026400D02*
X135503680Y-98522720D01*
X104353680Y-121212720D02*
X109263680Y-116302720D01*
X130720614Y-120091322D02*
X130908678Y-120091322D01*
X135503680Y-83282720D02*
X136854680Y-84633720D01*
X100601960Y-105601960D02*
X100601960Y-117461000D01*
X100601960Y-117461000D02*
X104353680Y-121212720D01*
X114300000Y-132390000D02*
X119390000Y-132390000D01*
X132000000Y-119000000D02*
X132000000Y-102026400D01*
X129619614Y-121192322D02*
X130720614Y-120091322D01*
X136854680Y-84633720D02*
X136854680Y-97171720D01*
X135926400Y-98100000D02*
X135503680Y-98522720D01*
X136854680Y-97171720D02*
X135503680Y-98522720D01*
X119390000Y-132390000D02*
X119400000Y-132400000D01*
X130908678Y-120091322D02*
X132000000Y-119000000D01*
X104353680Y-121212720D02*
X98800000Y-126766400D01*
X120201000Y-133201000D02*
X119400000Y-132400000D01*
D27*
%TO.N,WPN Control*%
X102500000Y-95000000D02*
X102500000Y-96000000D01*
X101000000Y-93500000D02*
X102500000Y-95000000D01*
%TO.N,Motor 1 PWM*%
X138400000Y-105786400D02*
X138400000Y-104500000D01*
X135503680Y-108682720D02*
X138400000Y-105786400D01*
%TO.N,Motor 2 PWM*%
X106199000Y-82201000D02*
X106199000Y-104778040D01*
X106199000Y-104778040D02*
X110103680Y-108682720D01*
X110400000Y-78000000D02*
X106199000Y-82201000D01*
%TO.N,Motor1 CCW*%
X135503680Y-111222720D02*
X139558820Y-107167580D01*
X139558820Y-107167580D02*
X139558820Y-104208280D01*
D26*
%TO.N,Supply 5V*%
X114300000Y-123390000D02*
X114300000Y-124806400D01*
X92000000Y-106500000D02*
X92000000Y-109000000D01*
D27*
%TO.N,Motor 2 PWM*%
X130981322Y-109981322D02*
X124018678Y-109981322D01*
X131000000Y-110000000D02*
X130981322Y-109981322D01*
X124018678Y-109981322D02*
X124000000Y-110000000D01*
%TD*%
M02*
